<svg xmlns="http://www.w3.org/2000/svg" viewBox="0 0 1000 500">
    <g>
        <path fill="#e80074" d="M221.284 105.18 365.9 249.796 221.284 394.414 76.666 249.797l144.618-144.618z" data-color="1"></path>
        <path d="M221.28 5 12.74 125.41l208.54 120.41 208.53-120.41ZM50.18 125.41l171.1-98.79 171.1 98.79-171.1 98.79Z" fill="#f2f2f7" data-color="2"></path>
        <path d="M437.55 138.8 229 259.19V500l208.56-120.4ZM247.73 467.58V270l171.11-98.78V368.8Z" fill="#f2f2f7" data-color="2"></path>
        <path d="M5 379.61 213.54 500V259.2L5 138.8Zm18.73-208.39L194.83 270v197.58L23.72 368.8Z" fill="#f2f2f7" data-color="2"></path>
        <path d="M492.65 99.53h15.29v130h-15.29v-130Z" fill="#f2f2f7" data-color="2"></path>
        <path d="M523.24 229.56v-130h50.48q21.22 2.11 35.56 19.7 15.69 19.3 13.39 45.31 2.1 25.25-12.81 44.75-14.54 18.35-36.14 20.27h-50.48Zm49.33-15.3q14.34-1.33 24.28-13.58 12.24-15.1 10.52-36.14V164a50.51 50.51 0 0 0-7.65-31.74q-10.14-15.87-27.15-17.4h-34v99.43Z" fill="#f2f2f7" data-color="2"></path>
        <path d="M729.74 99.53v15.3h-76.48v42.07h55.83v15.29h-55.83v42.07h76.48v15.3H638v-130h91.78Z" fill="#f2f2f7" data-color="2"></path>
        <path d="M745 99.53h15.29v130H745v-130Z" fill="#f2f2f7" data-color="2"></path>
        <path d="M784.62 229.56H768l4.59-10.71 49.72-114.73 2.1-4.59h9.94l2.11 4.59 49.71 114.73 4.59 10.71H874.1L872 225l-42.64-98.48L786.72 225Z" fill="#f2f2f7" data-color="2"></path>
        <path d="M556.89 311.77a17.6 17.6 0 0 0-4.78-12q-8.22-9-22.37-9a32.8 32.8 0 0 0-15.49 3.83q-11.65 6.12-11.66 17.2a9.8 9.8 0 0 0 1 4q3.25 6.31 21.61 13.38 22.76 9 27.34 11.09 23.14 11.67 23.14 28.88-.2 12.24-10.33 22.56-13.95 13.77-35.56 13.77-18.74 0-32.31-10.52-13.59-10.9-13.58-25.81h15.3c.12 4.46 2 8.54 5.73 12.23q9.38 8.81 24.86 8.8a40 40 0 0 0 18.12-4.18q12.42-6.3 12.42-16.82a8.77 8.77 0 0 0-1.14-4.21q-3.26-6.49-21.8-13.77-22.56-8.79-27-10.9-23.15-11.46-23.14-28.49 0-12.42 9.18-22.56 12.61-13.77 33.27-13.77a45.21 45.21 0 0 1 28.72 9.52q13.77 10.89 13.77 26.76Z" fill="#f2f2f7" data-color="2"></path>
        <path d="m587.49 340.46.19-57.18v-7.64h7.65l48.56-.2a39.74 39.74 0 0 1 25.81 9.18q13.39 10.9 13.39 27.35a33.64 33.64 0 0 1-9 22.94q-11.65 13.2-30.21 13.19h-41.1v57.37h-15.29v-65Zm56.4-7.65a26.54 26.54 0 0 0 13.2-3.44q10.7-6.12 10.71-17.4a19.56 19.56 0 0 0-4.21-12.05q-7.08-9.18-19.7-9.18h-41.11V333Z" fill="#f2f2f7" data-color="2"></path>
        <path d="M679.59 405.47H663l4.59-10.71L717.26 280l2.1-4.59h9.94l2.11 4.59 49.71 114.73 4.59 10.71h-16.64l-2.1-4.59-42.64-98.45-42.64 98.48Z" fill="#f2f2f7" data-color="2"></path>
        <path d="M888.11 377.93a51.78 51.78 0 0 1-11.09 13q-17.21 14.54-37.86 14.54-22.93-.2-39.58-18.17Q782 368.19 782 340.46q0-27.91 17.78-47 16.44-18 39.39-18a56.44 56.44 0 0 1 25.43 6.31q16.45 8.42 23.33 21.8l-13.77 6.89a31.8 31.8 0 0 0-7.07-9 41.2 41.2 0 0 0-27.92-10.71q-16.06.19-28.1 12.81-13.77 14.93-13.77 36.91a54.25 54.25 0 0 0 10.9 33.46q12.42 16.24 31 16.25a40.57 40.57 0 0 0 15.68-3.25q13.77-5.73 19.89-16.64Z" fill="#f2f2f7" data-color="2"></path>
        <path d="M995 275.44v15.3h-76.48v42.07h55.83v15.29h-55.83v42.07H995v15.3h-91.78v-130H995Z" fill="#f2f2f7" data-color="2"></path>
    </g>
</svg>
