<svg width="498" height="185" viewBox="0 0 498 185" fill="none" xmlns="http://www.w3.org/2000/svg">
<rect width="498" height="185" fill="black"/>
<g clip-path="url(#clip0_3387_18)">
<path d="M79.9 148.6H97.7V153.1H39V148.6H56.8V37.5996H39V33.0996H99.2C118.8 33.0996 142.2 35.3996 142.2 60.3996C142.2 80.6996 120.8 87.6996 104.1 89.4996V89.8996C132.1 94.1996 138.4 108.8 138.4 138.1C138.4 144.4 138.9 151.6 156.2 148.3V152.6C151.2 153.9 146.1 154.8 140.9 154.8C122.7 154.8 113.2 145.6 113.2 127.3C113.2 112.4 110.7 101.8 106 97.7996C101 93.4996 95.2 91.2996 89.6 91.2996H79.7V148.6H79.9ZM79.9 86.7996H94.6C110.8 86.7996 117.4 79.0996 117.4 62.8996C117.4 42.7996 111.5 37.5996 95.5 37.5996H79.9V86.7996Z" fill="white"/>
<path d="M211.999 148.6H229.799V153.1H171.199V148.6H188.999V37.5996H171.199V33.0996H229.799V37.5996H211.999V148.6Z" fill="white"/>
<path d="M255.301 155.2H251.801V118.1H257.801C262.201 135 274.101 150.6 296.201 150.6C312.701 150.6 327.301 140.3 327.301 125.7C327.301 109.2 310.001 106 294.301 101.4C290.101 100.2 286.001 98.9 281.801 97.8C262.401 92.8 252.801 80.4 252.801 63.5C252.801 44.8 269.101 31 290.801 31C302.901 31 311.701 33.5 321.301 39.9L329.201 31H333.001V66.3H326.301C324.001 49.4 311.101 35.4 290.201 35.4C276.801 35.4 264.301 43.8 264.301 55.7C264.301 69.4 275.401 70.8 288.301 73.8C293.501 75 297.701 76.3 301.201 77.2C305.401 78.3 310.601 79.5 315.001 81.3C332.501 88.4 338.801 100.1 338.801 116.1C338.801 138.5 321.701 155 294.801 155C285.001 155 272.501 151.6 265.201 145.9L255.301 155.2Z" fill="white"/>
<path d="M395.102 37.5996V89.1996C412.402 89.1996 421.502 86.4996 422.402 67.2996H427.402V117.5H422.402C420.802 97.4996 414.502 93.1996 395.102 93.7996V148.8H420.602C444.002 148.8 449.002 135 452.802 114.6H458.002L456.402 153.2H354.102V148.7H372.102V37.5996H354.102V33.0996H453.602L454.702 65.4996H449.702C445.902 48.1996 439.102 41.5996 429.902 39.0996C425.402 37.7996 420.202 37.6996 414.302 37.6996H395.102V37.5996Z" fill="white"/>
</g>
<defs>
<clipPath id="clip0_3387_18">
<rect width="419" height="124.2" fill="white" transform="translate(39 31)"/>
</clipPath>
</defs>
</svg>
