<?xml version="1.0" encoding="utf-8"?>
<!-- Generator: Adobe Illustrator 27.5.0, SVG Export Plug-In . SVG Version: 6.00 Build 0)  -->
<svg version="1.1" id="Layer_2_1_" xmlns="http://www.w3.org/2000/svg" xmlns:xlink="http://www.w3.org/1999/xlink" x="0px" y="0px"
	 viewBox="0 0 419 124.2" style="enable-background:new 0 0 419 124.2;" xml:space="preserve">
<style type="text/css">
	.st0{fill:#FFFFFF;}
</style>
<g>
	<path class="st0" d="M40.9,117.6h17.8v4.5H0v-4.5h17.8V6.6H0V2.1h60.2c19.6,0,43,2.3,43,27.3c0,20.3-21.4,27.3-38.1,29.1v0.4
		c28,4.3,34.3,18.9,34.3,48.2c0,6.3,0.5,13.5,17.8,10.2v4.3c-5,1.3-10.1,2.2-15.3,2.2c-18.2,0-27.7-9.2-27.7-27.5
		c0-14.9-2.5-25.5-7.2-29.5c-5-4.3-10.8-6.5-16.4-6.5h-9.9v57.3C40.7,117.6,40.9,117.6,40.9,117.6z M40.9,55.8h14.7
		c16.2,0,22.8-7.7,22.8-23.9c0-20.1-5.9-25.3-21.9-25.3H40.9V55.8z"/>
	<path class="st0" d="M173,117.6h17.8v4.5h-58.6v-4.5H150V6.6h-17.8V2.1h58.6v4.5H173L173,117.6L173,117.6z"/>
	<path class="st0" d="M216.3,124.2h-3.5V87.1h6c4.4,16.9,16.3,32.5,38.4,32.5c16.5,0,31.1-10.3,31.1-24.9c0-16.5-17.3-19.7-33-24.3
		c-4.2-1.2-8.3-2.5-12.5-3.6c-19.4-5-29-17.4-29-34.3c0-18.7,16.3-32.5,38-32.5c12.1,0,20.9,2.5,30.5,8.9l7.9-8.9h3.8v35.3h-6.7
		C285,18.4,272.1,4.4,251.2,4.4c-13.4,0-25.9,8.4-25.9,20.3c0,13.7,11.1,15.1,24,18.1c5.2,1.2,9.4,2.5,12.9,3.4
		c4.2,1.1,9.4,2.3,13.8,4.1c17.5,7.1,23.8,18.8,23.8,34.8c0,22.4-17.1,38.9-44,38.9c-9.8,0-22.3-3.4-29.6-9.1L216.3,124.2z"/>
	<path class="st0" d="M356.1,6.6v51.6c17.3,0,26.4-2.7,27.3-21.9h5v50.2h-5c-1.6-20-7.9-24.3-27.3-23.7v55h25.5
		c23.4,0,28.4-13.8,32.2-34.2h5.2l-1.6,38.6H315.1v-4.5h18V6.6h-18V2.1h99.5l1.1,32.4h-5c-3.8-17.3-10.6-23.9-19.8-26.4
		c-4.5-1.3-9.7-1.4-15.6-1.4h-19.2V6.6z"/>
</g>
</svg>
